<svg width="864" height="864" viewBox="0 0 864 864" fill="none" xmlns="http://www.w3.org/2000/svg">
<circle cx="432" cy="432" r="432" fill="#161618"/>
<mask id="mask0_28_499" style="mask-type:alpha" maskUnits="userSpaceOnUse" x="0" y="0" width="864" height="864">
<circle cx="432" cy="432" r="432" fill="#161618"/>
</mask>
<g mask="url(#mask0_28_499)">
<path d="M127.794 272.204C127.794 272.204 221.578 263.871 272.679 331.57C297.351 269.483 402.37 225.688 441.386 240.018C450.324 130.059 490.528 98 490.528 98C490.528 98 608.936 132.355 608.936 251.478C710.269 308.617 782.219 521.6 612.343 634.478C620.683 810.276 837.817 822.508 838 1018.69C838.222 1225.02 555.113 1249 587.904 1245.6C495.741 1357.28 316.731 1422.7 165.798 1332.87C-15.8909 1224.81 -9.54026 961.75 121.888 982.476C257.265 1003.83 103.017 1121.27 190.759 1221.23C233.52 1269.92 376.367 1338.25 511.774 1245.64C511.774 1245.64 281.009 1249.75 281.009 1050.2C281.009 850.65 454.388 873.226 418.761 696.214C205.486 718.038 171.531 545.961 188.384 483.588C87.4289 415.879 127.813 272.178 127.813 272.178L127.794 272.204Z" fill="#F76190"/>
</g>
</svg>
